<svg width="36" height="36" viewBox="0 0 36 36" fill="none" xmlns="http://www.w3.org/2000/svg">
<rect width="36" height="36" rx="5" fill="#A5F9D2"/>
<path d="M11.202 24.216C10.11 24.216 9.156 24.06 8.34 23.748C7.536 23.424 6.792 22.914 6.108 22.218L8.358 19.968C8.826 20.412 9.318 20.754 9.834 20.994C10.35 21.222 10.902 21.336 11.49 21.336C11.982 21.336 12.354 21.264 12.606 21.12C12.858 20.964 12.984 20.754 12.984 20.49C12.984 20.226 12.876 20.01 12.66 19.842C12.444 19.662 12.156 19.506 11.796 19.374C11.448 19.23 11.058 19.086 10.626 18.942C10.206 18.798 9.786 18.624 9.366 18.42C8.946 18.216 8.556 17.97 8.196 17.682C7.848 17.382 7.566 17.016 7.35 16.584C7.134 16.14 7.026 15.6 7.026 14.964C7.026 14.136 7.224 13.422 7.62 12.822C8.016 12.222 8.574 11.766 9.294 11.454C10.014 11.13 10.86 10.968 11.832 10.968C12.792 10.968 13.68 11.124 14.496 11.436C15.324 11.736 16.008 12.168 16.548 12.732L14.28 14.982C13.884 14.598 13.488 14.316 13.092 14.136C12.696 13.944 12.264 13.848 11.796 13.848C11.424 13.848 11.124 13.908 10.896 14.028C10.68 14.148 10.572 14.328 10.572 14.568C10.572 14.82 10.68 15.03 10.896 15.198C11.112 15.354 11.394 15.498 11.742 15.63C12.102 15.762 12.492 15.9 12.912 16.044C13.344 16.188 13.77 16.362 14.19 16.566C14.61 16.758 14.994 17.01 15.342 17.322C15.702 17.622 15.99 18 16.206 18.456C16.422 18.912 16.53 19.464 16.53 20.112C16.53 21.42 16.062 22.434 15.126 23.154C14.202 23.862 12.894 24.216 11.202 24.216ZM18.0308 24V11.184H21.6308V24H18.0308ZM25.7708 24V11.184H29.3708V24H25.7708ZM19.9928 18.96V15.972H27.1748V18.96H19.9928Z" fill="black"/>
</svg>
