<svg width="36" height="36" viewBox="0 0 36 36" fill="none" xmlns="http://www.w3.org/2000/svg">
<g filter="url(#filter0_d_2688_292)">
<rect x="10" y="8" width="16" height="16" rx="8" fill="#EE6802" shape-rendering="crispEdges"/>
<path d="M13.3307 16.0013C13.3307 13.424 15.4201 11.3346 17.9974 11.3346C20.5747 11.3346 22.6641 13.424 22.6641 16.0013C22.6641 18.5786 20.5747 20.668 17.9974 20.668C15.4201 20.668 13.3307 18.5786 13.3307 16.0013ZM17.9974 10.168C14.7757 10.168 12.1641 12.7796 12.1641 16.0013C12.1641 19.2229 14.7757 21.8346 17.9974 21.8346C21.219 21.8346 23.8307 19.2229 23.8307 16.0013C23.8307 12.7796 21.219 10.168 17.9974 10.168ZM17.9974 13.9596C18.4806 13.9596 18.8724 13.5679 18.8724 13.0846C18.8724 12.6014 18.4806 12.2096 17.9974 12.2096C17.5142 12.2096 17.1224 12.6014 17.1224 13.0846C17.1224 13.5679 17.5142 13.9596 17.9974 13.9596ZM17.9974 14.5429C17.089 14.5429 16.1433 14.3348 15.2972 14.0012L14.8643 15.0846C15.4919 15.3351 16.1642 15.5036 16.8307 15.6105C16.8307 16.1182 16.8803 16.6394 16.6459 17.1081L15.7256 18.9488L16.7691 19.4705L17.6749 17.6589C17.7359 17.5368 17.8608 17.4596 17.9973 17.4596C18.1339 17.4596 18.2587 17.5368 18.3198 17.6589L19.2256 19.4705L20.2691 18.9488L19.3487 17.1081C19.1144 16.6394 19.164 16.1182 19.164 15.6105C19.8296 15.5038 20.4951 15.3325 21.1235 15.0873C21.1382 15.0816 20.6977 14.0012 20.6961 14.0018C19.8482 14.3324 18.9071 14.5429 17.9974 14.5429Z" fill="white"/>
</g>
<defs>
<filter id="filter0_d_2688_292" x="0" y="0" width="36" height="36" filterUnits="userSpaceOnUse" color-interpolation-filters="sRGB">
<feFlood flood-opacity="0" result="BackgroundImageFix"/>
<feColorMatrix in="SourceAlpha" type="matrix" values="0 0 0 0 0 0 0 0 0 0 0 0 0 0 0 0 0 0 127 0" result="hardAlpha"/>
<feOffset dy="2"/>
<feGaussianBlur stdDeviation="5"/>
<feComposite in2="hardAlpha" operator="out"/>
<feColorMatrix type="matrix" values="0 0 0 0 0 0 0 0 0 0 0 0 0 0 0 0 0 0 0.13 0"/>
<feBlend mode="normal" in2="BackgroundImageFix" result="effect1_dropShadow_2688_292"/>
<feBlend mode="normal" in="SourceGraphic" in2="effect1_dropShadow_2688_292" result="shape"/>
</filter>
</defs>
</svg>
